<svg width="103" height="106" viewBox="0 0 103 106" fill="none" xmlns="http://www.w3.org/2000/svg">
<path d="M46.46 33.7297C46.3244 20.7568 57.6757 16.4324 63.2168 16.4324C69.027 16.4324 80.1092 19.6757 79.9735 33.7297C79.8379 47.7838 69.027 50.4865 63.2168 50.4865C57.1352 50.4865 46.5956 46.7027 46.46 33.7297Z" stroke="#0085FF" stroke-width="3" stroke-linecap="round"/>
<path d="M2.13568 104C1.23478 96.7928 4.40596 82.3784 24.2978 82.3784C44.1897 82.3784 47.3609 96.7928 46.46 104" stroke="#424656" stroke-width="3" stroke-linecap="round"/>
<path d="M19.4329 95.8919L24.7026 84L29.7031 95.8919L24.2977 102.919L19.4329 95.8919Z" stroke="#424656" stroke-width="3" stroke-linecap="round"/>
<path d="M13.4871 65.6216C13.8474 66.7027 15.1087 68.8649 17.2708 68.8649C19.433 68.8649 20.6943 66.7027 21.0546 65.6216" stroke="#424656" stroke-width="3" stroke-linecap="round"/>
<path d="M27.541 65.6216C27.9014 66.7027 29.1626 68.8649 31.3248 68.8649C33.487 68.8649 34.7482 66.7027 35.1086 65.6216" stroke="#424656" stroke-width="3" stroke-linecap="round"/>
<path d="M39.4329 63.4595C36.7302 61.8378 29.7032 58.5946 24.2977 58.5946C19.037 58.5946 12.0631 62.1982 9 63.4595" stroke="#424656" stroke-width="3" stroke-linecap="round"/>
<path d="M17.2709 9.94595H2.13574V19.6757H17.8114V25.0811L29.7033 14.8108L17.2709 4V9.94595Z" stroke="#0085FF" stroke-width="3" stroke-linecap="round"/>
<path d="M88.0817 70.4865H72.9465V80.2162H88.6222V85.6216L100.514 75.3513L88.0817 64.5405V70.4865Z" stroke="#0085FF" stroke-width="3" stroke-linecap="round"/>
<path d="M40.0951 67.2433C40.0951 75.6248 33.0676 82.5 24.2978 82.5C15.5279 82.5 8.50049 75.6248 8.50049 67.2433C8.50049 58.8617 15.5279 51.9865 24.2978 51.9865C33.0676 51.9865 40.0951 58.8617 40.0951 67.2433Z" stroke="#424656" stroke-width="3"/>
<path d="M63.7573 62.3784H59.8924C59.3402 62.3784 58.8924 61.9306 58.8924 61.3784V59.2716C58.8924 58.8627 58.6435 58.495 58.2638 58.3431L54.0993 56.6773C53.7279 56.5287 53.3036 56.6158 53.0208 56.8987L50.8504 59.069C50.5014 59.418 49.95 59.4602 49.552 59.1683L42.9937 54.3589C42.5287 54.0179 42.4477 53.3553 42.8168 52.9123L44.3229 51.105C44.6239 50.7439 44.6326 50.222 44.3441 49.8509L41.5285 46.2308C41.2493 45.8719 40.7631 45.7465 40.3452 45.9256L38.3221 46.7927C37.7657 47.0311 37.1267 46.7244 36.9647 46.1412L34.8225 38.4293C34.68 37.9162 34.9646 37.3813 35.4698 37.2129L37.1276 36.6603C37.5359 36.5242 37.8114 36.1421 37.8114 35.7117V31.645C37.8114 31.2663 37.5974 30.92 37.2586 30.7506L35.3438 29.7933C34.8987 29.5707 34.685 29.0547 34.8424 28.5826L37.4951 20.6243C37.6698 20.1004 38.2361 19.8172 38.76 19.9919L40.3708 20.5288C40.7792 20.6649 41.2288 20.5245 41.4871 20.1801L43.9036 16.9581C44.1429 16.639 44.1697 16.2082 43.9719 15.8619L42.5988 13.4591C42.338 13.0027 42.475 12.4224 42.9123 12.1309L49.4961 7.74167C49.9213 7.45819 50.4919 7.54094 50.819 7.93354L52.5236 9.97902C52.7801 10.2868 53.1955 10.4118 53.5792 10.2967L57.6392 9.07865C58.0622 8.95175 58.3519 8.56243 58.3519 8.12082V5.54053C58.3519 4.98824 58.7996 4.54053 59.3519 4.54053H63.2168" stroke="#424656" stroke-width="3" stroke-linecap="round"/>
<path d="M63.2168 4.54052L67.0817 4.54052C67.634 4.54052 68.0817 4.98824 68.0817 5.54052L68.0817 7.64727C68.0817 8.05618 68.3306 8.42389 68.7103 8.57575L72.8748 10.2416C73.2463 10.3901 73.6705 10.3031 73.9533 10.0202L76.1237 7.84987C76.4727 7.50086 77.0241 7.45869 77.4222 7.75057L83.9804 12.56C84.4454 12.901 84.5264 13.5636 84.1573 14.0066L82.6512 15.8139C82.3503 16.175 82.3415 16.6969 82.6301 17.068L85.4457 20.688C85.7248 21.047 86.211 21.1724 86.6289 20.9932L88.652 20.1262C89.2084 19.8878 89.8474 20.1945 90.0094 20.7777L92.1516 28.4896C92.2942 29.0027 92.0096 29.5375 91.5043 29.7059L89.8465 30.2585C89.4382 30.3947 89.1628 30.7768 89.1628 31.2072L89.1628 35.2738C89.1628 35.6526 89.3768 35.9989 89.7155 36.1683L91.6303 37.1256C92.0754 37.3482 92.2891 37.8642 92.1317 38.3363L89.479 46.2945C89.3043 46.8185 88.738 47.1016 88.2141 46.927L86.6033 46.3901C86.1949 46.254 85.7453 46.3944 85.4871 46.7387L83.0705 49.9608C82.8312 50.2799 82.8044 50.7107 83.0023 51.057L84.3753 53.4598C84.6361 53.9162 84.4991 54.4965 84.0618 54.788L77.478 59.1772C77.0528 59.4607 76.4822 59.3779 76.1551 58.9853L74.4505 56.9399C74.194 56.6321 73.7786 56.5071 73.3949 56.6222L69.3349 57.8402C68.9119 57.9671 68.6222 58.3565 68.6222 58.7981L68.6222 61.3784C68.6222 61.9306 68.1745 62.3784 67.6222 62.3784L63.7574 62.3784" stroke="#424656" stroke-width="3" stroke-linecap="round"/>
</svg>
