<svg width="102" height="104" viewBox="0 0 102 104" fill="none" xmlns="http://www.w3.org/2000/svg">
<path d="M19.259 46.67H10.1067C9.5544 46.67 9.10669 47.1178 9.10669 47.67V52.269C9.10669 52.8213 9.5544 53.269 10.1067 53.269H32.0214C32.2992 53.269 32.5644 53.1535 32.7536 52.9501L52.4649 31.7605C52.6541 31.5571 52.9193 31.4416 53.1971 31.4416H66.4671H67.5675C67.8376 31.4416 68.0962 31.3324 68.2845 31.1387L84.0394 14.9336C84.6652 14.2899 85.7564 14.7329 85.7564 15.6306V20.2893C85.7564 20.8416 86.2042 21.2893 86.7564 21.2893H91.3554C91.9077 21.2893 92.3554 20.8416 92.3554 20.2893V3.52284C92.3554 3.01523 91.9493 2 90.325 2C88.8041 2 79.7486 2 74.5732 2C74.0209 2 73.5737 2.44772 73.5737 3V7.09137C73.5737 7.64365 74.0214 8.09137 74.5737 8.09137H78.8238C79.7075 8.09137 80.1568 9.1537 79.5413 9.78785L64.7312 25.0467C64.5429 25.2408 64.2841 25.3503 64.0137 25.3503H51.1596C50.886 25.3503 50.6242 25.4624 50.4355 25.6606L30.7221 46.3597C30.5333 46.5579 30.2716 46.67 29.9979 46.67H24.8427" stroke="#0085FF" stroke-width="3" stroke-linecap="round"/>
<path d="M17.736 102H3C2.44771 102 2 101.552 2 101V96.401C2 95.8487 2.44772 95.401 3 95.401H9.61421H25.3503H99.4772C100.029 95.401 100.477 95.8487 100.477 96.401V101C100.477 101.552 100.029 102 99.4772 102H23.8274" stroke="#424656" stroke-width="3" stroke-linecap="round"/>
<path d="M9.10669 95.401V72.0356C9.10669 71.4833 9.5544 71.0356 10.1067 71.0356H23.8427C24.395 71.0356 24.8427 71.4833 24.8427 72.0356V93.8934C24.8427 94.4457 25.2904 94.8934 25.8427 94.8934H30.4417C30.994 94.8934 31.4417 94.4457 31.4417 93.8934V62.3909C31.4417 61.8386 31.8894 61.3909 32.4417 61.3909H46.6854C47.2377 61.3909 47.6854 61.8386 47.6854 62.3909V94.401C47.6854 94.9533 48.1331 95.401 48.6854 95.401H52.7767C53.329 95.401 53.7767 94.9533 53.7767 94.401V50.7158C53.7767 50.1635 54.2245 49.7158 54.7767 49.7158H68.5128C69.0651 49.7158 69.5128 50.1635 69.5128 50.7158V94.401C69.5128 94.9533 69.9605 95.401 70.5128 95.401H75.1118C75.6641 95.401 76.1118 94.9533 76.1118 94.401V42.5939C76.1118 42.0416 76.5595 41.5939 77.1118 41.5939H91.3554C91.9077 41.5939 92.3554 42.0416 92.3554 42.5939V63.929" stroke="#424656" stroke-width="3" stroke-linecap="round"/>
<path d="M92.3552 70.0203V94.8934H76.1116" stroke="#424656" stroke-width="3" stroke-linecap="round"/>
</svg>
