<svg width="105" height="104" viewBox="0 0 105 104" fill="none" xmlns="http://www.w3.org/2000/svg">
<path d="M67.9795 7.15464H65.9176H59.732M67.9795 7.15464C67.9795 6.12371 68.8042 4.06186 72.1032 4.06186C75.4021 4.06186 76.2269 6.12371 76.2269 7.15464V17.9794V6.27312C76.2269 5.4969 76.3865 4.71294 76.8737 4.10872C77.6789 3.11027 79.0504 2 80.8661 2C82.8331 2 84.0616 3.30317 84.6554 4.35546C84.9194 4.82351 84.9898 5.36676 84.9898 5.90417V7.6701M67.9795 7.15464H59.732M84.9898 17.9794V7.6701M84.9898 7.6701C85.1616 6.98282 86.33 5.60825 89.6289 5.60825C92.9279 5.60825 93.7527 8.01375 93.7527 9.21649V12.3093M93.7527 21.5876V12.3093M93.7527 12.3093C93.7527 11.2783 94.6805 9.21649 98.3918 9.21649C101.656 9.21649 102.501 10.8114 102.541 11.8971C102.551 12.1723 102.516 12.4477 102.516 12.7231V37.8779C102.516 38.6894 102.318 39.4886 101.94 40.2067L97.9363 47.8139C97.5584 48.532 97.3609 49.3312 97.3609 50.1427V62.4639C97.3609 65.2253 95.1223 67.4639 92.3609 67.4639H84.2787C81.0813 67.4639 79.3346 63.7347 81.3815 61.2783V61.2783C82.2406 60.4192 83.4434 58.2887 81.3815 56.6392C79.6157 55.2265 77.976 55.2253 77.1098 55.47C76.8606 55.5403 76.6075 55.6082 76.3486 55.6082V55.6082C75.4273 55.6082 74.6805 54.8614 74.6805 53.9402V48.4462C74.6805 47.0934 74.1324 45.7984 73.1612 44.8567L57.6702 29.835M57.6702 29.835H49.432C48.1059 29.835 46.8341 30.3618 45.8964 31.2995L30.1852 47.0107C29.9524 47.2436 29.7013 47.4602 29.4058 47.6055C28.1764 48.2098 25.8327 48.6646 23.6496 46.8454C21.1753 44.7835 23.3059 41.8625 24.6805 40.6598V40.6598C26.2022 39.138 25.1245 36.5361 22.9724 36.5361H9.73204C8.01382 36.5361 4.5774 35.7113 4.5774 32.4124C4.5774 29.1134 5.95197 27.945 6.63925 27.7732M57.6702 29.835C56.6393 28.8041 54.9898 26.2268 56.6393 24.1649C58.0478 22.4043 59.5565 22.2724 60.3952 22.4854C60.6483 22.5497 60.8697 22.6948 61.0822 22.8466L67.9795 27.7732M6.63925 27.7732H19.0104M6.63925 27.7732C5.4365 27.6014 3.03101 26.433 3.03101 23.134C3.03101 20.2324 4.62609 19.5107 5.71182 19.4959C5.98719 19.4921 6.2622 19.5258 6.5376 19.5258H9.21657M19.0104 19.5258H9.21657M9.21657 19.5258C8.18564 19.5258 6.12379 18.5979 6.12379 14.8866C6.12379 11.6224 7.7187 10.7772 8.80442 10.7379C9.07964 10.7279 9.35498 10.7629 9.63039 10.7629H13.3403M22.1032 10.7629H13.3403M13.3403 10.7629C12.1375 10.5911 9.73204 9.52577 9.73204 6.63917C9.73204 4.21531 10.9435 3.07563 11.8406 2.6708C12.1407 2.53536 12.4752 2.51546 12.8045 2.51546H37.0516H38.9641C39.7403 2.51546 40.5059 2.69619 41.2001 3.04333L45.8145 5.35052L48.367 6.62677C49.0613 6.97391 49.8269 7.15464 50.6031 7.15464H59.732" stroke="#424656" stroke-width="3" stroke-linecap="round"/>
<path d="M67.9795 7.15466V27.7732" stroke="#424656" stroke-width="3" stroke-linecap="round"/>
<path d="M36.5625 96.8454L38.6244 96.8454L44.81 96.8454M36.5625 96.8454C36.5625 97.8763 35.7378 99.9382 32.4388 99.9382C29.1399 99.9382 28.3151 97.8763 28.3151 96.8454L28.3151 86.0206L28.3151 97.7269C28.3151 98.5031 28.1555 99.2871 27.6683 99.8913C26.8631 100.89 25.4916 102 23.6759 102C21.7089 102 20.4803 100.697 19.8866 99.6445C19.6226 99.1765 19.5522 98.6332 19.5522 98.0958L19.5522 96.3299M36.5625 96.8454L44.81 96.8454M19.5522 86.0206L19.5522 96.3299M19.5522 96.3299C19.3804 97.0172 18.212 98.3918 14.9131 98.3918C11.6141 98.3918 10.7893 95.9863 10.7893 94.7835L10.7893 91.6907M10.7893 82.4124L10.7893 91.6907M10.7893 91.6907C10.7893 92.7217 9.86151 94.7835 6.15017 94.7835C2.88602 94.7835 2.04082 93.1886 2.00142 92.1029C1.99144 91.8277 2.02645 91.5523 2.02645 91.2769L2.02645 66.1221C2.02645 65.3106 2.22394 64.5114 2.60186 63.7933L6.60568 56.1861C6.9836 55.468 7.18109 54.6688 7.18109 53.8573L7.18109 41.5361C7.18109 38.7747 9.41967 36.5361 12.1811 36.5361L20.2633 36.5361C23.4607 36.5361 25.2074 40.2653 23.1605 42.7217V42.7217C22.3014 43.5808 21.0986 45.7114 23.1605 47.3608C24.9263 48.7735 26.566 48.7747 27.4322 48.5301C27.6814 48.4597 27.9345 48.3918 28.1934 48.3918V48.3918C29.1147 48.3918 29.8615 49.1386 29.8615 50.0598L29.8615 55.5538C29.8615 56.9066 30.4096 58.2016 31.3808 59.1433L46.8718 74.165M46.8718 74.165L55.11 74.165C56.4361 74.165 57.7079 73.6382 58.6456 72.7005L74.3568 56.9893C74.5896 56.7564 74.8407 56.5398 75.1362 56.3945C76.3656 55.7902 78.7093 55.3354 80.8924 57.1546C83.3667 59.2165 81.2361 62.1375 79.8615 63.3402V63.3402C78.3397 64.862 79.4175 67.4639 81.5696 67.4639L94.81 67.4639C96.5282 67.4639 99.9646 68.2887 99.9646 71.5876C99.9646 74.8866 98.59 76.055 97.9027 76.2268M46.8718 74.165C47.9027 75.1959 49.5522 77.7732 47.9027 79.8351C46.4942 81.5957 44.9854 81.7276 44.1468 81.5146C43.8937 81.4503 43.6723 81.3052 43.4598 81.1534L36.5625 76.2268M97.9027 76.2268L85.5316 76.2268M97.9027 76.2268C99.1055 76.3986 101.511 77.567 101.511 80.866C101.511 83.7676 99.9159 84.4893 98.8302 84.5041C98.5548 84.5079 98.2798 84.4742 98.0044 84.4742L95.3254 84.4742M85.5316 84.4742L95.3254 84.4742M95.3254 84.4742C96.3563 84.4742 98.4182 85.4021 98.4182 89.1134C98.4182 92.3776 96.8233 93.2228 95.7376 93.2621C95.4623 93.2721 95.187 93.2371 94.9116 93.2371L91.2017 93.2371M82.4388 93.2371L91.2017 93.2371M91.2017 93.2371C92.4045 93.4089 94.81 94.4742 94.81 97.3608C94.81 99.7847 93.5985 100.924 92.7014 101.329C92.4013 101.465 92.0668 101.485 91.7375 101.485L67.4904 101.485L65.5779 101.485C64.8017 101.485 64.0361 101.304 63.3419 100.957L58.7275 98.6495L56.175 97.3732C55.4807 97.0261 54.7151 96.8454 53.9389 96.8454L44.81 96.8454" stroke="#424656" stroke-width="3" stroke-linecap="round"/>
<path d="M36.5625 96.8453L36.5625 76.2268" stroke="#424656" stroke-width="3" stroke-linecap="round"/>
<rect x="34.4194" y="52.1648" width="25.7472" height="25.7472" rx="5" transform="rotate(-45 34.4194 52.1648)" fill="#0085FF"/>
</svg>
