<svg width="103" height="104" viewBox="0 0 103 104" fill="none" xmlns="http://www.w3.org/2000/svg">
<circle cx="100.5" cy="42.5" r="1.5" fill="#0085FF"/>
<path d="M20.4212 19.1053C17.1317 18.886 10.5527 20.5527 10.5527 28.9737C10.5527 37.3948 17.1317 39.0614 20.4212 38.8421C23.7106 39.0614 30.2896 37.3948 30.2896 28.9737C30.2896 20.5526 23.7106 18.886 20.4212 19.1053ZM20.4212 19.1053V7.26316M20.4212 7.26316H60.5527M20.4212 7.26316H100.684M60.5527 7.26316V2M60.5527 7.26316H100.684M100.684 7.26316V34.8947" stroke="#424656" stroke-width="3" stroke-linecap="round"/>
<path d="M39.5 19.1053H81.6053" stroke="#0085FF" stroke-width="3" stroke-linecap="round"/>
<path d="M56.6052 27.6579H89.5" stroke="#0085FF" stroke-width="3" stroke-linecap="round"/>
<path d="M59.2368 35.5526H89.5" stroke="#0085FF" stroke-width="3" stroke-linecap="round"/>
<path d="M55.2896 43.4474H89.5001" stroke="#0085FF" stroke-width="3" stroke-linecap="round"/>
<path d="M100.684 49.3684V53.1842C100.684 58.7071 96.207 63.1842 90.6842 63.1842H57.921M57.921 63.1842V84.2368M57.921 63.1842H40.8158C35.3656 63.1842 30.9474 67.6024 30.9474 73.0526V73.0526V53.6652C30.9474 49.8306 33.1401 46.3338 36.5918 44.6636L51.3421 37.5263C52.6579 36.8684 52.3947 33.8421 51.3421 32.2632C50.5231 31.0346 49.1199 30.7885 48.1242 30.8431C47.6336 30.87 47.1668 31.0417 46.7127 31.2296L29.9528 38.1647C28.8699 38.6128 27.7166 38.867 26.5456 38.9158L12.5263 39.5C9.01754 39.9386 2 42 2 46.7368C2 51.4737 2 65.3772 2 71.7368C2 72.3947 3.18421 73.7105 5.28947 73.7105V73.7105C7.83289 73.7105 9.89474 71.6487 9.89474 69.1052V50.6842V98.0526C9.89474 100.684 13.0526 101.342 15.1579 101.342C17.2632 101.342 20.421 99.3684 20.421 98.0526M57.921 96.7368V84.2368M57.921 84.2368L77.6579 102M57.921 84.2368L38.1842 102M20.421 98.0526V69.1052M20.421 98.0526C20.421 99.3684 22.5263 101.342 25.6842 101.342C28.8421 101.342 30.9474 100.684 30.9474 98.0526V86.8684" stroke="#424656" stroke-width="3" stroke-linecap="round"/>
<circle cx="30.9473" cy="80.2895" r="1.97368" fill="#0085FF"/>
</svg>
