<svg width="64" height="64" viewBox="0 0 64 64" fill="none" xmlns="http://www.w3.org/2000/svg">
<path fill-rule="evenodd" clip-rule="evenodd" d="M18 0C8.05888 0 0 8.05888 0 18V46C0 55.9411 8.05888 64 18 64H46C55.9411 64 64 55.9411 64 46V18C64 8.05888 55.9411 0 46 0H18ZM20 6C12.268 6 6 12.268 6 20V44C6 51.732 12.268 58 20 58H44C51.732 58 58 51.732 58 44V20C58 12.268 51.732 6 44 6H20Z" fill="white"/>
<path fill-rule="evenodd" clip-rule="evenodd" d="M31.5 49C40.6127 49 48 41.6127 48 32.5C48 23.3873 40.6127 16 31.5 16C22.3873 16 15 23.3873 15 32.5C15 41.6127 22.3873 49 31.5 49ZM31.5 43C37.299 43 42 38.299 42 32.5C42 26.701 37.299 22 31.5 22C25.701 22 21 26.701 21 32.5C21 38.299 25.701 43 31.5 43Z" fill="white"/>
<circle cx="48.5" cy="15.5" r="3.5" fill="white"/>
</svg>
